<svg xmlns="http://www.w3.org/2000/svg" xmlns:xlink="http://www.w3.org/1999/xlink" viewBox="0 0 43.3 47.7"><defs><style>.cls-1{fill:url(#linear-gradient);}.cls-2{fill:url(#linear-gradient-2);}.cls-3{fill:url(#linear-gradient-3);}.cls-4{fill:url(#linear-gradient-4);}.cls-5{fill:url(#linear-gradient-5);}.cls-6{fill:url(#linear-gradient-6);}</style><linearGradient id="linear-gradient" x1="26" y1="22.49" x2="24.53" y2="27.88" gradientTransform="translate(14.99)" gradientUnits="userSpaceOnUse"><stop offset="0" stop-color="#e779af"/><stop offset="1" stop-color="#c0027e"/></linearGradient><linearGradient id="linear-gradient-2" x1="-5.34" y1="12.46" x2="-8.62" y2="24.5" xlink:href="#linear-gradient"/><linearGradient id="linear-gradient-3" x1="4.87" y1="2.25" x2="-15.03" y2="19.76" xlink:href="#linear-gradient"/><linearGradient id="linear-gradient-4" x1="15.28" y1="23.88" x2="10.07" y2="43.01" xlink:href="#linear-gradient"/><linearGradient id="linear-gradient-5" x1="21.91" y1="8.23" x2="-2.47" y2="31.81" xlink:href="#linear-gradient"/><linearGradient id="linear-gradient-6" x1="2.08" y1="32.58" x2="-3.25" y2="52.15" xlink:href="#linear-gradient"/></defs><g id="Layer_2" data-name="Layer 2"><g id="Origami"><g id="bird"><polygon class="cls-1" points="39.54 20.4 43.3 27.3 36.4 26.05 39.54 20.4"/><polygon class="cls-2" points="0 8.47 10.04 8.79 17.53 22.95 16.63 25.1 0 8.47"/><polygon class="cls-3" points="2.51 0 21.42 3.92 16.63 22.59 2.51 0"/><polygon class="cls-4" points="31.69 20.4 39.54 20.4 35.15 32.01 18.2 37.66 31.69 20.4"/><polygon class="cls-5" points="21.34 3.77 36.72 27.93 18.2 37.66 15.69 26.05 21.34 3.77"/><polygon class="cls-6" points="15.69 26.05 8.47 47.7 19.14 41.42 18.2 37.66 15.69 26.05"/></g></g></g></svg>