<?xml version="1.0" encoding="UTF-8" standalone="no"?>
<!DOCTYPE svg PUBLIC "-//W3C//DTD SVG 1.1//EN"
 "http://www.w3.org/Graphics/SVG/1.1/DTD/svg11.dtd">
<!-- Generated by graphviz version 2.50.0 (20211209.1537)
 -->
<!-- Title: g Pages: 1 -->
<svg width="603pt" height="658pt"
 viewBox="0.00 0.00 603.31 658.00" xmlns="http://www.w3.org/2000/svg" xmlns:xlink="http://www.w3.org/1999/xlink">
<g id="graph0" class="graph" transform="scale(1 1) rotate(0) translate(4 654)">
<title>g</title>
<g id="node1" class="node">
<title></title>
<g id="a_node1"><a xlink:href=".">
<ellipse fill="white" stroke="#666666" cx="5.5" cy="-323" rx="5.5" ry="5.5"/>
</a>
</g>
</g>
<!-- assets -->
<g id="node2" class="node">
<title>assets</title>
<g id="a_node2"><a xlink:href="assets" xlink:title="Stylesheet and fonts\l">
<polygon fill="white" stroke="#b3b3b3" points="286.28,-650 180.05,-650 180.05,-614 286.28,-614 286.28,-650"/>
<text text-anchor="start" x="187.85" y="-629" font-family="Helvetica,sans-Serif" font-size="10.00">Stylesheet and fonts</text>
</a>
</g>
</g>
<!-- &#45;&gt;assets -->
<g id="edge1" class="edge">
<title>&#45;&gt;assets</title>
<path fill="none" stroke="#999999" d="M8.01,-328.03C13.73,-346.6 35.2,-412.73 65,-461 100.87,-519.1 115.55,-530.47 164.58,-578 175.87,-588.95 189.24,-599.98 201.09,-609.19"/>
<polygon fill="#999999" stroke="#999999" points="207.13,-613.83 199.13,-611.94 204.16,-611.55 201.18,-609.26 201.18,-609.26 201.18,-609.26 204.16,-611.55 203.24,-606.59 207.13,-613.83 207.13,-613.83"/>
<text text-anchor="middle" x="87.79" y="-526" font-family="Helvetica,sans-Serif" font-size="10.00">assets</text>
</g>
<!-- images -->
<g id="node3" class="node">
<title>images</title>
<g id="a_node3"><a xlink:href="images" xlink:title="Images\l">
<polygon fill="white" stroke="#b3b3b3" points="260.16,-542 206.16,-542 206.16,-506 260.16,-506 260.16,-542"/>
<text text-anchor="start" x="216.77" y="-521" font-family="Helvetica,sans-Serif" font-size="10.00">Images</text>
</a>
</g>
</g>
<!-- &#45;&gt;images -->
<g id="edge2" class="edge">
<title>&#45;&gt;images</title>
<path fill="none" stroke="#999999" d="M9.4,-327.04C17.51,-338.19 41.34,-370.07 65,-393 108.37,-435.03 164.68,-476.91 199.61,-501.62"/>
<polygon fill="#999999" stroke="#999999" points="205.88,-506.03 197.8,-504.47 202.81,-503.87 199.75,-501.71 199.75,-501.71 199.75,-501.71 202.81,-503.87 201.69,-498.95 205.88,-506.03 205.88,-506.03"/>
<text text-anchor="middle" x="87.79" y="-434" font-family="Helvetica,sans-Serif" font-size="10.00">images</text>
</g>
<!-- index.html -->
<g id="node4" class="node">
<title>index.html</title>
<g id="a_node4"><a xlink:href="index.html" xlink:title="Same as first page of posts\l">
<polygon fill="white" stroke="#b3b3b3" points="301.83,-434 164.49,-434 164.49,-398 301.83,-398 301.83,-434"/>
<text text-anchor="start" x="172.58" y="-413" font-family="Helvetica,sans-Serif" font-size="10.00">Same as first page of posts</text>
</a>
</g>
</g>
<!-- &#45;&gt;index.html -->
<g id="edge3" class="edge">
<title>&#45;&gt;index.html</title>
<path fill="none" stroke="#999999" d="M10.81,-324.77C31.53,-333.32 122.43,-370.78 181.11,-394.96"/>
<polygon fill="#999999" stroke="#999999" points="188.1,-397.84 179.88,-398.1 184.63,-396.41 181.16,-394.98 181.16,-394.98 181.16,-394.98 184.63,-396.41 182.45,-391.86 188.1,-397.84 188.1,-397.84"/>
<text text-anchor="middle" x="87.79" y="-366" font-family="Helvetica,sans-Serif" font-size="10.00">index.html</text>
</g>
<!-- pages -->
<g id="node5" class="node">
<title>pages</title>
<g id="a_node5"><a xlink:href="pages">
<ellipse fill="white" stroke="#666666" cx="233.16" cy="-320" rx="5.5" ry="5.5"/>
</a>
</g>
</g>
<!-- &#45;&gt;pages -->
<g id="edge4" class="edge">
<title>&#45;&gt;pages</title>
<path fill="none" stroke="#999999" d="M11.05,-322.8C20.89,-322.38 44.88,-321.4 65,-321 122.87,-319.84 192.04,-319.88 219.77,-319.95"/>
<polygon fill="#999999" stroke="#999999" points="227.51,-319.98 220,-323.33 223.76,-319.97 220.01,-319.96 220.01,-319.96 220.01,-319.96 223.76,-319.97 220.02,-316.58 227.51,-319.98 227.51,-319.98"/>
<text text-anchor="middle" x="87.79" y="-324" font-family="Helvetica,sans-Serif" font-size="10.00">pages</text>
</g>
<!-- posts -->
<g id="node8" class="node">
<title>posts</title>
<g id="a_node8"><a xlink:href="posts">
<ellipse fill="white" stroke="#666666" cx="233.16" cy="-234" rx="5.5" ry="5.5"/>
</a>
</g>
</g>
<!-- &#45;&gt;posts -->
<g id="edge7" class="edge">
<title>&#45;&gt;posts</title>
<path fill="none" stroke="#999999" d="M10.61,-320.31C19.97,-314.29 43.69,-299.48 65,-290 121.27,-264.98 192.36,-244.69 220.21,-237.16"/>
<polygon fill="#999999" stroke="#999999" points="227.65,-235.17 221.28,-240.36 224.03,-236.14 220.41,-237.1 220.41,-237.1 220.41,-237.1 224.03,-236.14 219.54,-233.84 227.65,-235.17 227.65,-235.17"/>
<text text-anchor="middle" x="87.79" y="-293" font-family="Helvetica,sans-Serif" font-size="10.00">posts</text>
</g>
<!-- feed.json -->
<g id="node12" class="node">
<title>feed.json</title>
<g id="a_node12"><a xlink:href="feed.json" xlink:title="JSON feed\l">
<polygon fill="white" stroke="#b3b3b3" points="265.57,-156 200.75,-156 200.75,-120 265.57,-120 265.57,-156"/>
<text text-anchor="start" x="208.71" y="-135" font-family="Helvetica,sans-Serif" font-size="10.00">JSON feed</text>
</a>
</g>
</g>
<!-- &#45;&gt;feed.json -->
<g id="edge11" class="edge">
<title>&#45;&gt;feed.json</title>
<path fill="none" stroke="#999999" d="M8.89,-318.44C15.99,-305.19 38.17,-266.08 65,-241 103.99,-204.56 157.81,-174.16 193.74,-156.05"/>
<polygon fill="#999999" stroke="#999999" points="200.68,-152.6 195.47,-158.96 197.32,-154.27 193.96,-155.94 193.96,-155.94 193.96,-155.94 197.32,-154.27 192.46,-152.92 200.68,-152.6 200.68,-152.6"/>
<text text-anchor="middle" x="87.79" y="-244" font-family="Helvetica,sans-Serif" font-size="10.00">feed.json</text>
</g>
<!-- rss.xml -->
<g id="node13" class="node">
<title>rss.xml</title>
<g id="a_node13"><a xlink:href="rss.xml" xlink:title="RSS feed\l">
<polygon fill="white" stroke="#b3b3b3" points="262.47,-48 203.86,-48 203.86,-12 262.47,-12 262.47,-48"/>
<text text-anchor="start" x="211.76" y="-27" font-family="Helvetica,sans-Serif" font-size="10.00">RSS feed</text>
</a>
</g>
</g>
<!-- &#45;&gt;rss.xml -->
<g id="edge12" class="edge">
<title>&#45;&gt;rss.xml</title>
<path fill="none" stroke="#999999" d="M7.7,-317.82C12.42,-298.11 31.22,-226.34 65,-177 101.12,-124.25 160.36,-78.29 197.76,-52.37"/>
<polygon fill="#999999" stroke="#999999" points="204.02,-48.08 199.74,-55.1 200.93,-50.2 197.84,-52.32 197.84,-52.32 197.84,-52.32 200.93,-50.2 195.93,-49.53 204.02,-48.08 204.02,-48.08"/>
<text text-anchor="middle" x="87.79" y="-180" font-family="Helvetica,sans-Serif" font-size="10.00">rss.xml</text>
</g>
<!-- pages/1.html -->
<g id="node6" class="node">
<title>pages/1.html</title>
<g id="a_node6"><a xlink:href="pages/1.html" xlink:title="First page of posts\l">
<polygon fill="white" stroke="#b3b3b3" points="588.2,-468 489.68,-468 489.68,-432 588.2,-432 588.2,-468"/>
<text text-anchor="start" x="497.81" y="-447" font-family="Helvetica,sans-Serif" font-size="10.00">First page of posts</text>
</a>
</g>
</g>
<!-- pages&#45;&gt;pages/1.html -->
<g id="edge5" class="edge">
<title>pages&#45;&gt;pages/1.html</title>
<path fill="none" stroke="#999999" d="M238.46,-321.84C265.21,-333.29 410.46,-395.45 488.42,-428.81"/>
<polygon fill="#999999" stroke="#999999" points="495.75,-431.94 487.52,-432.1 492.3,-430.47 488.85,-428.99 488.85,-428.99 488.85,-428.99 492.3,-430.47 490.18,-425.89 495.75,-431.94 495.75,-431.94"/>
<text text-anchor="middle" x="392.16" y="-403" font-family="Helvetica,sans-Serif" font-size="10.00">1.html</text>
</g>
<!-- pages/2.html -->
<g id="node7" class="node">
<title>pages/2.html</title>
<g id="a_node7"><a xlink:href="pages/2.html" xlink:title="Second page of posts\l">
<polygon fill="white" stroke="#b3b3b3" points="595.18,-360 482.7,-360 482.7,-324 595.18,-324 595.18,-360"/>
<text text-anchor="start" x="490.57" y="-339" font-family="Helvetica,sans-Serif" font-size="10.00">Second page of posts</text>
</a>
</g>
</g>
<!-- pages&#45;&gt;pages/2.html -->
<g id="edge6" class="edge">
<title>pages&#45;&gt;pages/2.html</title>
<path fill="none" stroke="#999999" d="M238.93,-320.35C265.37,-322.26 395.53,-331.69 475.15,-337.45"/>
<polygon fill="#999999" stroke="#999999" points="482.7,-338 474.97,-340.82 478.95,-337.73 475.21,-337.46 475.21,-337.46 475.21,-337.46 478.95,-337.73 475.46,-334.09 482.7,-338 482.7,-338"/>
<text text-anchor="middle" x="392.16" y="-336" font-family="Helvetica,sans-Serif" font-size="10.00">2.html</text>
</g>
<!-- posts/2025&#45;07&#45;04.html -->
<g id="node9" class="node">
<title>posts/2025&#45;07&#45;04.html</title>
<g id="a_node9"><a xlink:href="posts/2025-07-04.html" xlink:title="First post\l">
<polygon fill="white" stroke="#b3b3b3" points="567.56,-252 510.32,-252 510.32,-216 567.56,-216 567.56,-252"/>
<text text-anchor="start" x="518.38" y="-231" font-family="Helvetica,sans-Serif" font-size="10.00">First post</text>
</a>
</g>
</g>
<!-- posts&#45;&gt;posts/2025&#45;07&#45;04.html -->
<g id="edge8" class="edge">
<title>posts&#45;&gt;posts/2025&#45;07&#45;04.html</title>
<path fill="none" stroke="#999999" d="M238.93,-234C268.72,-234 430.21,-234 502.7,-234"/>
<polygon fill="#999999" stroke="#999999" points="510.25,-234 502.75,-237.38 506.5,-234 502.75,-234 502.75,-234 502.75,-234 506.5,-234 502.75,-230.63 510.25,-234 510.25,-234"/>
<text text-anchor="middle" x="392.16" y="-237" font-family="Helvetica,sans-Serif" font-size="10.00">2025&#45;07&#45;04.html</text>
</g>
<!-- posts/2025&#45;07&#45;07.html -->
<g id="node10" class="node">
<title>posts/2025&#45;07&#45;07.html</title>
<g id="a_node10"><a xlink:href="posts/2025-07-07.html" xlink:title="Second post\l">
<polygon fill="white" stroke="#b3b3b3" points="574.54,-144 503.34,-144 503.34,-108 574.54,-108 574.54,-144"/>
<text text-anchor="start" x="511.14" y="-123" font-family="Helvetica,sans-Serif" font-size="10.00">Second post</text>
</a>
</g>
</g>
<!-- posts&#45;&gt;posts/2025&#45;07&#45;07.html -->
<g id="edge9" class="edge">
<title>posts&#45;&gt;posts/2025&#45;07&#45;07.html</title>
<path fill="none" stroke="#999999" d="M238.46,-232.47C266.12,-222.64 420.46,-167.77 496.12,-140.87"/>
<polygon fill="#999999" stroke="#999999" points="503.18,-138.36 497.25,-144.05 499.65,-139.61 496.12,-140.87 496.12,-140.87 496.12,-140.87 499.65,-139.61 494.99,-137.69 503.18,-138.36 503.18,-138.36"/>
<text text-anchor="middle" x="392.16" y="-192" font-family="Helvetica,sans-Serif" font-size="10.00">2025&#45;07&#45;07.html</text>
</g>
<!-- posts/2025&#45;07&#45;10.html -->
<g id="node11" class="node">
<title>posts/2025&#45;07&#45;10.html</title>
<g id="a_node11"><a xlink:href="posts/2025-07-10.html" xlink:title="Third post\l">
<polygon fill="white" stroke="#b3b3b3" points="569.4,-36 508.47,-36 508.47,0 569.4,0 569.4,-36"/>
<text text-anchor="start" x="516.71" y="-15" font-family="Helvetica,sans-Serif" font-size="10.00">Third post</text>
</a>
</g>
</g>
<!-- posts&#45;&gt;posts/2025&#45;07&#45;10.html -->
<g id="edge10" class="edge">
<title>posts&#45;&gt;posts/2025&#45;07&#45;10.html</title>
<path fill="none" stroke="#999999" d="M238.35,-231.86C249.31,-226.15 279.54,-209.79 301.75,-192 328.49,-170.58 329.25,-158.72 355.75,-137 403.2,-98.11 463.76,-60.67 501.71,-38.5"/>
<polygon fill="#999999" stroke="#999999" points="508.52,-34.54 503.73,-41.22 505.28,-36.42 502.04,-38.31 502.04,-38.31 502.04,-38.31 505.28,-36.42 500.34,-35.39 508.52,-34.54 508.52,-34.54"/>
<text text-anchor="middle" x="392.16" y="-140" font-family="Helvetica,sans-Serif" font-size="10.00">2025&#45;07&#45;10.html</text>
</g>
</g>
</svg>
